<?xml version="1.0" encoding="UTF-8"?>
<svg xmlns="http://www.w3.org/2000/svg" viewBox="0 0 500 900" width="500" height="900" role="img" aria-label="Network topology: firewall panos-fw01 connecting to two WAN routers, two distribution switches, one spine switch, and two leaf switches.">
  <defs>
    <style><![CDATA[
      svg {
        font-family: -apple-system, BlinkMacSystemFont, "SF Pro Text", "Segoe UI", sans-serif;
      }
      .frame { fill: var(--lab-surface-subtle); stroke: var(--lab-border); stroke-width: 1; }
      .device { fill: var(--lab-bg); stroke: var(--lab-border); stroke-width: 1.5; }
      .icon-stroke { stroke: var(--lab-text-muted); fill: none; stroke-width: 1.5; stroke-linecap: round; stroke-linejoin: round; }
      .icon-accent { stroke: var(--lab-accent); fill: none; stroke-width: 1.5; stroke-linecap: round; stroke-linejoin: round; }
      .accent-fill { fill: var(--lab-accent); }
      .link { stroke: var(--lab-border); stroke-width: 1.25; fill: none; stroke-linecap: round; }
      .label { fill: var(--lab-text); font-size: 12px; font-weight: 500; text-anchor: middle; font-family: ui-monospace, SFMono-Regular, Menlo, Monaco, Consolas, monospace; }
    ]]></style>
  </defs>

  <!-- Outer container -->
  <rect class="frame" x="0.5" y="0.5" width="499" height="899" rx="18" ry="18"/>

  <!-- ========== CONNECTIONS (back layer) ========== -->
  <g>
    <!-- panos-fw01 -> wan-r1, wan-r2 -->
    <path class="link" d="M 250,80 L 110,235"/>
    <path class="link" d="M 250,80 L 390,235"/>

    <!-- wan-r1 -> dist-01, wan-r2 -> dist-02 -->
    <path class="link" d="M 110,255 L 110,385"/>
    <path class="link" d="M 390,255 L 390,385"/>

    <!-- dist-01, dist-02 -> spine-01 -->
    <path class="link" d="M 110,405 L 250,545"/>
    <path class="link" d="M 390,405 L 250,545"/>

    <!-- spine-01 -> leaf-01, leaf-02 -->
    <path class="link" d="M 250,565 L 110,705"/>
    <path class="link" d="M 250,565 L 390,705"/>
  </g>

  <!-- ========== panos-fw01 (Firewall - brick wall) ========== -->
  <g transform="translate(250, 60)">
    <rect class="device" x="-32" y="-20" width="64" height="40" rx="10"/>
    <g transform="translate(-12, -12)">
      <!-- Brick wall pattern: 3 rows, staggered -->
      <rect class="icon-stroke" x="3" y="4" width="6" height="4.5"/>
      <rect class="icon-stroke" x="9" y="4" width="6" height="4.5"/>
      <rect class="icon-stroke" x="15" y="4" width="6" height="4.5"/>
      <rect class="icon-stroke" x="3" y="8.5" width="3" height="4.5"/>
      <rect class="icon-stroke" x="6" y="8.5" width="6" height="4.5"/>
      <rect class="icon-stroke" x="12" y="8.5" width="6" height="4.5"/>
      <rect class="icon-stroke" x="18" y="8.5" width="3" height="4.5"/>
      <rect class="icon-stroke" x="3" y="13" width="6" height="4.5"/>
      <rect class="icon-stroke" x="9" y="13" width="6" height="4.5"/>
      <rect class="icon-stroke" x="15" y="13" width="6" height="4.5"/>
    </g>
    <text class="label" y="36">panos-fw01</text>
  </g>

  <!-- ========== wan-r1 (Router) ========== -->
  <g transform="translate(110, 240)">
    <rect class="device" x="-32" y="-20" width="64" height="40" rx="10"/>
    <g transform="translate(-12, -12)">
      <!-- Lucide-style router: circle in center with 4 directional arrows -->
      <circle class="icon-accent" cx="12" cy="12" r="3"/>
      <path class="icon-accent" d="M 12 6 L 12 9"/>
      <path class="icon-accent" d="M 10 7.5 L 12 6 L 14 7.5"/>
      <path class="icon-accent" d="M 12 18 L 12 15"/>
      <path class="icon-accent" d="M 10 16.5 L 12 18 L 14 16.5"/>
      <path class="icon-accent" d="M 6 12 L 9 12"/>
      <path class="icon-accent" d="M 7.5 10 L 6 12 L 7.5 14"/>
      <path class="icon-accent" d="M 18 12 L 15 12"/>
      <path class="icon-accent" d="M 16.5 10 L 18 12 L 16.5 14"/>
    </g>
    <text class="label" y="36">wan-r1</text>
  </g>

  <!-- ========== wan-r2 (Router) ========== -->
  <g transform="translate(390, 240)">
    <rect class="device" x="-32" y="-20" width="64" height="40" rx="10"/>
    <g transform="translate(-12, -12)">
      <circle class="icon-accent" cx="12" cy="12" r="3"/>
      <path class="icon-accent" d="M 12 6 L 12 9"/>
      <path class="icon-accent" d="M 10 7.5 L 12 6 L 14 7.5"/>
      <path class="icon-accent" d="M 12 18 L 12 15"/>
      <path class="icon-accent" d="M 10 16.5 L 12 18 L 14 16.5"/>
      <path class="icon-accent" d="M 6 12 L 9 12"/>
      <path class="icon-accent" d="M 7.5 10 L 6 12 L 7.5 14"/>
      <path class="icon-accent" d="M 18 12 L 15 12"/>
      <path class="icon-accent" d="M 16.5 10 L 18 12 L 16.5 14"/>
    </g>
    <text class="label" y="36">wan-r2</text>
  </g>

  <!-- ========== dist-01 (Distribution Switch - taller body) ========== -->
  <g transform="translate(110, 395)">
    <rect class="device" x="-32" y="-20" width="64" height="40" rx="10"/>
    <g transform="translate(-12, -12)">
      <!-- Switch body: tall rectangle -->
      <rect class="icon-stroke" x="3" y="6" width="18" height="12" rx="1"/>
      <!-- Port indicators on bottom -->
      <circle class="accent-fill" cx="6" cy="14.5" r="0.9"/>
      <circle class="accent-fill" cx="9" cy="14.5" r="0.9"/>
      <circle class="accent-fill" cx="12" cy="14.5" r="0.9"/>
      <circle class="accent-fill" cx="15" cy="14.5" r="0.9"/>
      <circle class="accent-fill" cx="18" cy="14.5" r="0.9"/>
      <!-- Status line on top -->
      <path class="icon-stroke" d="M 6 9 L 18 9"/>
    </g>
    <text class="label" y="36">dist-01</text>
  </g>

  <!-- ========== dist-02 (Distribution Switch) ========== -->
  <g transform="translate(390, 395)">
    <rect class="device" x="-32" y="-20" width="64" height="40" rx="10"/>
    <g transform="translate(-12, -12)">
      <rect class="icon-stroke" x="3" y="6" width="18" height="12" rx="1"/>
      <circle class="accent-fill" cx="6" cy="14.5" r="0.9"/>
      <circle class="accent-fill" cx="9" cy="14.5" r="0.9"/>
      <circle class="accent-fill" cx="12" cy="14.5" r="0.9"/>
      <circle class="accent-fill" cx="15" cy="14.5" r="0.9"/>
      <circle class="accent-fill" cx="18" cy="14.5" r="0.9"/>
      <path class="icon-stroke" d="M 6 9 L 18 9"/>
    </g>
    <text class="label" y="36">dist-02</text>
  </g>

  <!-- ========== spine-01 (Spine Switch - tallest, 6 ports) ========== -->
  <g transform="translate(250, 555)">
    <rect class="device" x="-32" y="-20" width="64" height="40" rx="10"/>
    <g transform="translate(-12, -12)">
      <rect class="icon-stroke" x="2" y="5" width="20" height="14" rx="1"/>
      <!-- 6 port indicators for higher density -->
      <circle class="accent-fill" cx="5" cy="15.5" r="0.9"/>
      <circle class="accent-fill" cx="8.4" cy="15.5" r="0.9"/>
      <circle class="accent-fill" cx="11.8" cy="15.5" r="0.9"/>
      <circle class="accent-fill" cx="15.2" cy="15.5" r="0.9"/>
      <circle class="accent-fill" cx="18.6" cy="15.5" r="0.9"/>
      <!-- Two status lines -->
      <path class="icon-stroke" d="M 5 8.5 L 19 8.5"/>
      <path class="icon-stroke" d="M 5 11.5 L 19 11.5"/>
    </g>
    <text class="label" y="36">spine-01</text>
  </g>

  <!-- ========== leaf-01 (Leaf Switch - shorter body) ========== -->
  <g transform="translate(110, 715)">
    <rect class="device" x="-32" y="-20" width="64" height="40" rx="10"/>
    <g transform="translate(-12, -12)">
      <!-- Shorter switch body -->
      <rect class="icon-stroke" x="3" y="8" width="18" height="9" rx="1"/>
      <circle class="accent-fill" cx="6" cy="13.5" r="0.9"/>
      <circle class="accent-fill" cx="9" cy="13.5" r="0.9"/>
      <circle class="accent-fill" cx="12" cy="13.5" r="0.9"/>
      <circle class="accent-fill" cx="15" cy="13.5" r="0.9"/>
      <circle class="accent-fill" cx="18" cy="13.5" r="0.9"/>
      <path class="icon-stroke" d="M 6 10.5 L 18 10.5"/>
    </g>
    <text class="label" y="36">leaf-01</text>
  </g>

  <!-- ========== leaf-02 (Leaf Switch) ========== -->
  <g transform="translate(390, 715)">
    <rect class="device" x="-32" y="-20" width="64" height="40" rx="10"/>
    <g transform="translate(-12, -12)">
      <rect class="icon-stroke" x="3" y="8" width="18" height="9" rx="1"/>
      <circle class="accent-fill" cx="6" cy="13.5" r="0.9"/>
      <circle class="accent-fill" cx="9" cy="13.5" r="0.9"/>
      <circle class="accent-fill" cx="12" cy="13.5" r="0.9"/>
      <circle class="accent-fill" cx="15" cy="13.5" r="0.9"/>
      <circle class="accent-fill" cx="18" cy="13.5" r="0.9"/>
      <path class="icon-stroke" d="M 6 10.5 L 18 10.5"/>
    </g>
    <text class="label" y="36">leaf-02</text>
  </g>

</svg>
