<?xml version="1.0" encoding="UTF-8" standalone="no"?>
<!DOCTYPE svg PUBLIC "-//W3C//DTD SVG 1.1//EN" "http://www.w3.org/Graphics/SVG/1.1/DTD/svg11.dtd">
<svg xmlns="http://www.w3.org/2000/svg" version="1.1" viewBox="0.00 0.00 371.00 404.00">
<path fill="#ffffff" d="
  M 42.68 151.91
  A 0.23 0.23 0.0 0 0 42.91 151.68
  Q 42.74 127.35 42.96 93.51
  Q 42.98 90.22 43.60 83.67
  Q 44.13 78.04 45.10 73.95
  Q 53.26 39.68 81.07 18.35
  Q 96.22 6.73 115.41 2.47
  Q 121.33 1.15 130.21 1.05
  Q 153.02 0.77 177.00 0.60
  Q 183.13 0.56 190.52 0.75
  Q 197.82 0.94 204.02 0.94
  Q 254.81 0.96 291.10 0.96
  Q 299.14 0.96 304.75 2.25
  C 328.49 7.69 346.97 22.06 359.75 43.00
  C 364.84 51.35 369.31 61.25 370.09 70.52
  C 371.01 81.43 370.91 92.22 359.44 96.86
  A 5.03 5.00 -55.9 0 1 357.55 97.23
  L 143.23 97.23
  A 1.33 1.32 90.0 0 0 141.91 98.56
  L 141.91 150.48
  A 1.52 1.52 0.0 0 0 143.43 152.00
  Q 327.16 151.98 357.99 152.01
  Q 363.12 152.02 367.59 156.40
  Q 371.79 160.53 370.61 167.28
  Q 369.02 176.34 362.36 179.61
  Q 359.40 181.06 348.34 181.07
  Q 188.14 181.18 63.25 181.12
  Q 32.44 181.10 20.50 181.28
  Q 15.74 181.35 11.28 180.76
  A 3.76 3.42 57.2 0 1 10.38 180.52
  Q 2.79 177.55 1.08 169.75
  Q 0.83 168.62 1.18 162.26
  A 4.69 4.60 -29.8 0 1 1.72 160.35
  Q 4.35 155.42 9.16 153.17
  Q 12.07 151.82 19.52 151.94
  Q 29.79 152.12 42.68 151.91
  Z
  M 112.79 151.26
  Q 112.89 121.01 112.82 94.75
  Q 112.80 88.97 113.02 85.24
  C 113.50 77.18 118.14 71.96 125.65 70.02
  Q 129.64 68.99 131.75 68.99
  Q 157.66 69.01 336.00 68.99
  Q 337.78 68.99 339.36 68.10
  A 0.72 0.70 -23.0 0 0 339.70 67.28
  Q 338.86 64.36 337.36 61.47
  Q 325.77 39.12 301.53 31.25
  Q 295.39 29.26 288.75 29.33
  C 286.92 29.35 284.50 28.67 282.07 28.66
  Q 178.91 28.41 142.32 28.47
  C 137.91 28.48 134.06 29.11 130.05 29.26
  Q 125.43 29.42 120.93 30.63
  C 112.90 32.78 106.96 35.03 100.61 39.62
  Q 93.76 44.57 92.29 46.04
  Q 78.32 60.04 73.36 79.00
  Q 73.09 80.04 72.89 82.48
  Q 72.77 84.01 71.96 87.47
  A 1.04 0.92 -41.4 0 0 71.93 87.71
  L 71.93 150.38
  A 1.62 1.61 -0.0 0 0 73.55 151.99
  L 112.05 151.99
  A 0.74 0.74 0.0 0 0 112.79 151.26
  Z"
/>
<path fill="#ffffff" d="
  M 371.00 316.52
  L 371.00 327.62
  L 367.05 343.92
  A 7.06 6.93 -23.4 0 1 366.31 345.74
  Q 363.60 350.39 361.52 355.38
  Q 359.36 360.55 357.03 363.91
  C 351.92 371.28 347.20 377.54 339.75 383.13
  C 324.87 394.28 309.93 400.46 291.99 402.06
  Q 290.97 402.15 273.01 402.20
  Q 267.41 402.21 176.00 402.26
  Q 154.60 402.27 133.00 402.15
  Q 127.43 402.11 123.57 401.30
  C 119.37 400.41 115.45 400.31 111.14 398.97
  Q 97.48 394.74 89.52 389.69
  Q 73.74 379.69 62.29 365.77
  Q 57.89 360.42 52.82 351.00
  Q 43.10 332.96 42.95 311.74
  Q 42.81 291.74 42.64 251.56
  A 1.19 1.19 0.0 0 0 41.46 250.38
  Q 26.64 250.28 15.83 250.12
  Q 6.02 249.98 1.67 241.51
  A 4.68 4.65 28.6 0 1 1.18 239.86
  C 0.37 231.79 1.27 225.75 8.72 222.30
  Q 11.64 220.95 20.49 220.96
  Q 154.01 221.03 357.75 220.98
  Q 363.36 220.98 367.35 225.18
  C 372.83 230.95 370.91 238.89 367.30 245.05
  C 365.00 248.96 359.73 250.09 355.50 250.12
  Q 330.77 250.24 146.00 250.18
  Q 144.76 250.18 143.47 250.33
  A 1.74 1.73 86.7 0 0 141.94 252.06
  L 141.94 303.18
  A 0.92 0.92 0.0 0 0 142.86 304.10
  Q 279.80 304.13 351.41 304.05
  Q 359.04 304.04 362.37 305.56
  Q 368.85 308.50 371.00 316.52
  Z
  M 73.55 250.57
  A 1.50 1.50 0.0 0 0 72.23 252.04
  Q 71.75 280.91 71.96 311.55
  Q 71.98 314.05 72.38 316.42
  C 73.15 321.05 73.68 324.71 74.84 328.37
  Q 78.04 338.44 84.76 347.49
  Q 86.52 349.86 92.43 356.29
  Q 95.07 359.17 103.24 364.72
  Q 110.22 369.46 122.22 372.44
  C 125.30 373.20 128.84 373.01 132.05 373.38
  Q 135.51 373.78 139.46 373.78
  Q 160.57 373.78 183.00 373.65
  C 184.80 373.63 186.56 373.34 188.18 373.33
  Q 214.66 373.18 243.73 373.50
  C 252.63 373.60 264.20 373.66 280.81 373.63
  Q 292.09 373.61 297.09 372.45
  C 309.00 369.71 317.77 364.97 326.29 356.05
  C 332.60 349.45 337.91 342.47 340.11 334.29
  A 0.66 0.65 -82.5 0 0 339.48 333.46
  Q 322.30 333.32 285.56 333.36
  C 281.14 333.36 277.15 334.13 272.36 334.07
  A 9.86 9.78 -50.9 0 0 269.95 334.33
  C 268.41 334.69 266.87 334.97 265.22 334.97
  Q 224.64 335.01 146.64 334.93
  Q 145.54 334.93 142.51 333.87
  A 6.48 6.39 -34.1 0 0 140.57 333.51
  C 131.55 333.28 124.28 333.62 118.39 328.37
  Q 112.60 323.21 112.67 315.22
  Q 112.87 288.76 112.54 251.14
  A 0.81 0.81 0.0 0 0 111.69 250.34
  Q 106.45 250.58 100.90 250.12
  Q 95.60 249.67 90.10 249.66
  Q 80.93 249.64 73.55 250.57
  Z"
/>
</svg>
